<?xml version="1.0" encoding="utf-8"?>
<!-- Generator: Adobe Illustrator 26.4.1, SVG Export Plug-In . SVG Version: 6.00 Build 0)  -->
<svg version="1.1" id="Шар_1" xmlns="http://www.w3.org/2000/svg" xmlns:xlink="http://www.w3.org/1999/xlink" x="0px" y="0px"
	 viewBox="0 0 1000 400" style="enable-background:new 0 0 1000 400;" xml:space="preserve">
<style type="text/css">
	.st0{fill:#5356FF;}
	.st1{fill-rule:evenodd;clip-rule:evenodd;fill:#5356FF;}
</style>
<g>
	<path d="M15.6,130.4h37.9l40.1,97.7h1.7l40.1-97.7h37.9v145.5h-29.8v-94.7h-1.2l-37.6,94H84.3l-37.6-94.3h-1.2v95H15.6V130.4z"/>
	<path d="M198,275.8V166.7h30.3v109.1H198z"/>
	<path d="M282.7,212.7v63.1h-30.3V166.7h28.8V186h1.3c2.4-6.3,6.5-11.4,12.1-15.1c5.7-3.7,12.6-5.6,20.7-5.6c7.6,0,14.2,1.7,19.8,5
		c5.6,3.3,10,8,13.1,14.2c3.1,6.1,4.7,13.4,4.7,21.9v69.5h-30.3v-64.1c0-6.7-1.7-11.9-5.1-15.7s-8.2-5.6-14.3-5.6
		c-4.1,0-7.7,0.9-10.8,2.6c-3.1,1.8-5.5,4.3-7.2,7.6C283.6,204,282.7,208.1,282.7,212.7z"/>
	<path d="M417,277.6c-8.3,0-15.8-2.1-22.5-6.4c-6.7-4.3-12-10.6-15.9-19c-3.9-8.4-5.9-18.6-5.9-30.8c0-12.5,2-22.9,6-31.2
		c4-8.3,9.4-14.5,16.1-18.7c6.7-4.1,14-6.2,22.1-6.2c6.1,0,11.2,1,15.3,3.1c4.1,2.1,7.4,4.6,9.9,7.7c2.5,3.1,4.5,6,5.8,9h0.9v-54.7
		h30.2v145.5h-29.8v-17.5h-1.3c-1.4,3-3.4,6-6,9c-2.6,3-5.9,5.4-10,7.4C427.8,276.6,422.8,277.6,417,277.6z M426.6,253.5
		c4.9,0,9-1.3,12.4-4c3.4-2.7,6-6.4,7.8-11.3c1.8-4.8,2.7-10.5,2.7-17c0-6.5-0.9-12.1-2.7-16.9c-1.8-4.8-4.4-8.5-7.8-11.1
		c-3.4-2.6-7.6-3.9-12.4-3.9c-5,0-9.2,1.3-12.6,4c-3.4,2.7-6,6.4-7.7,11.2c-1.8,4.8-2.6,10.3-2.6,16.6c0,6.3,0.9,11.9,2.7,16.8
		c1.8,4.9,4.4,8.6,7.7,11.4C417.4,252.2,421.6,253.5,426.6,253.5z"/>
	<path class="st0" d="M600.9,177.4c-1-3.5-2.4-6.5-4.2-9.2c-1.8-2.7-4-4.9-6.6-6.8c-2.6-1.9-5.5-3.3-8.8-4.3
		c-3.3-1-6.9-1.5-10.9-1.5c-7.4,0-14,1.8-19.6,5.5c-5.6,3.7-10,9.1-13.1,16.1s-4.7,15.6-4.7,25.7c0,10.1,1.5,18.8,4.6,25.9
		c3.1,7.1,7.4,12.5,13.1,16.2c5.6,3.7,12.3,5.6,20,5.6c7,0,12.9-1.2,17.9-3.7c4.9-2.5,8.7-6,11.4-10.5c2.6-4.5,3.9-9.9,3.9-16.1
		l6.2,0.9h-37.5V198h60.9v18.3c0,12.8-2.7,23.8-8.1,32.9c-5.4,9.2-12.8,16.2-22.3,21.2c-9.5,4.9-20.3,7.4-32.5,7.4
		c-13.6,0-25.6-3-35.9-9.1c-10.3-6-18.4-14.6-24.1-25.8c-5.8-11.2-8.6-24.4-8.6-39.7c0-11.8,1.7-22.3,5.1-31.6
		c3.4-9.3,8.2-17.1,14.5-23.5c6.2-6.4,13.4-11.3,21.7-14.7c8.2-3.4,17.2-5,26.8-5c8.2,0,15.9,1.2,23,3.6c7.1,2.4,13.4,5.8,18.9,10.1
		c5.5,4.4,10,9.5,13.5,15.5c3.5,6,5.8,12.6,6.7,19.8H600.9z"/>
	<path class="st0" d="M686.2,130.4v145.5H656V130.4H686.2z"/>
	<path class="st0" d="M759.7,277.9c-11,0-20.6-2.4-28.6-7.1c-8-4.7-14.2-11.3-18.6-19.7s-6.5-18.3-6.5-29.4
		c0-11.3,2.2-21.1,6.5-29.6s10.5-15,18.6-19.7c8-4.7,17.6-7.1,28.6-7.1s20.6,2.4,28.6,7.1c8,4.7,14.2,11.3,18.6,19.7
		s6.5,18.3,6.5,29.6c0,11.2-2.2,21-6.5,29.4s-10.5,15-18.6,19.7C780.2,275.6,770.7,277.9,759.7,277.9z M759.8,254.5
		c5,0,9.2-1.4,12.6-4.3c3.4-2.9,5.9-6.8,7.6-11.8c1.7-5,2.6-10.6,2.6-17c0-6.3-0.9-12-2.6-17c-1.7-5-4.3-8.9-7.6-11.8
		c-3.4-2.9-7.6-4.3-12.6-4.3c-5.1,0-9.3,1.4-12.7,4.3c-3.4,2.9-6,6.8-7.7,11.8c-1.7,5-2.6,10.6-2.6,17c0,6.3,0.9,12,2.6,17
		c1.7,5,4.3,8.9,7.7,11.8C750.5,253.1,754.7,254.5,759.8,254.5z"/>
	<path class="st0" d="M851.9,275.8l-29.7-109.1h30.6l16.9,73.3h1l17.6-73.3h30l17.9,72.9h0.9l16.6-72.9h30.5l-29.6,109.1h-32
		L904,207.2h-1.3l-18.8,68.6H851.9z"/>
</g>
<g id="Page-1">
	<g id="Icon-Set-Filled" transform="translate(-414.000000, -101.000000)">
		<path id="book-album" class="st1" d="M612.4,221.9c-2.7,0-4.9,2.2-4.9,4.9v25.8c0,2.7,2.3,4.1,4.9,4.9l13.5,3.7v-35.6
			C619.8,223.9,612.4,221.9,612.4,221.9z M641.9,221.9c0,0-7.1,2-13.6,3.7h0.1v35.6c6.9-1.8,13.5-3.7,13.5-3.7
			c2.5-0.7,4.9-2.2,4.9-4.9v-25.8C646.8,224.1,644.6,221.9,641.9,221.9z"/>
	</g>
</g>
</svg>
